<?xml version="1.0" encoding="UTF-8"?>
<svg version="1.1" xmlns="http://www.w3.org/2000/svg" width="100" height="100">
<path d="M0 0 C33 0 66 0 100 0 C100 33 100 66 100 100 C67 100 34 100 0 100 C0 67 0 34 0 0 Z " fill="#FEFEFE" transform="translate(0,0)"/>
<path d="M0 0 C10.23 0 20.46 0 31 0 C32 1 32 1 32.09765625 4.59765625 C32.09191272 6.08597255 32.07889891 7.57426296 32.0625 9.0625 C32.041875 11.681875 32.02125 14.30125 32 17 C37.28 17 42.56 17 48 17 C48 33.83 48 50.66 48 68 C32.16 68 16.32 68 0 68 C0 45.56 0 23.12 0 0 Z " fill="#FEFEFE" transform="translate(30,13)"/>
<path d="M0 0 C4.51138333 -0.45447895 9.00991535 -0.77533385 13.53759766 -0.98876953 C15.0659983 -1.07784908 16.59293262 -1.19962494 18.11572266 -1.35791016 C27.48712118 -2.30557967 34.12779302 -0.84614051 41.62506104 5.0894165 C49.02458705 11.83820669 52.89771684 17.92261692 53.68557739 28.01541138 C53.80878797 34.07896468 53.50624645 40.07541013 53.125 46.125 C53.03450581 48.64424148 52.9524125 51.16379938 52.87890625 53.68359375 C52.6825637 59.79608387 52.38325967 65.8965246 52 72 C49.69 72 47.38 72 45 72 C45 73.98 45 75.96 45 78 C27.84 78 10.68 78 -7 78 C-7 54.24 -7 30.48 -7 6 C-4.69 6 -2.38 6 0 6 C0 4.02 0 2.04 0 0 Z M2 2 C2 24.44 2 46.88 2 70 C17.84 70 33.68 70 50 70 C50 53.17 50 36.34 50 19 C44.72 19 39.44 19 34 19 C34.0625 11.0625 34.0625 11.0625 34.09008789 8.55883789 C34.09723945 6.70566241 34.0502852 4.85250692 34 3 C33.67 2.67 33.34 2.34 33 2 C22.77 2 12.54 2 2 2 Z " fill="#2A2A2A" transform="translate(28,11)"/>
<path d="M0 0 C1.65 0 3.3 0 5 0 C5 21.12 5 42.24 5 64 C19.19 64 33.38 64 48 64 C48 65.32 48 66.64 48 68 C32.16 68 16.32 68 0 68 C0 45.56 0 23.12 0 0 Z " fill="#FFFFFF" transform="translate(23,19)"/>
<path d="M0 0 C0.33 0 0.66 0 1 0 C1 22.44 1 44.88 1 68 C17.17 68 33.34 68 50 68 C50 66.68 50 65.36 50 64 C35.81 64 21.62 64 7 64 C7 63.67 7 63.34 7 63 C23.5 62.67 40 62.34 57 62 C57.33 45.17 57.66 28.34 58 11 C58.33 11 58.66 11 59 11 C59 28.49 59 45.98 59 64 C56.69 64 54.38 64 52 64 C52 65.98 52 67.96 52 70 C34.84 70 17.68 70 0 70 C0 46.9 0 23.8 0 0 Z " fill="#000000" transform="translate(21,19)"/>
<path d="M0 0 C2.31 1.98 4.62 3.96 7 6 C8.08893555 6.74926758 9.17787109 7.49853516 10.29980469 8.27050781 C14.87736135 11.83719335 18.34693873 14.90391455 19.58227539 20.76049805 C20.32737125 28.76377872 19.7529859 36.74746207 19.25 44.75 C19.14145169 47.20027565 19.03853385 49.65080757 18.94140625 52.1015625 C18.69258176 58.07221592 18.37394308 64.03594428 18 70 C17.67 70 17.34 70 17 70 C17 53.17 17 36.34 17 19 C11.72 19 6.44 19 1 19 C0.67 12.73 0.34 6.46 0 0 Z " fill="#373737" transform="translate(61,11)"/>
<path d="M0 0 C4.15358254 3.43469325 7.78875342 6.63270466 11 11 C7.37 11 3.74 11 0 11 C0 7.37 0 3.74 0 0 Z " fill="#FBFBFB" transform="translate(64,17)"/>
<path d="M0 0 C2 3.75 2 3.75 2 6 C-22.75 5.505 -22.75 5.505 -48 5 C-48 4.67 -48 4.34 -48 4 C-32.16 4 -16.32 4 0 4 C0 2.68 0 1.36 0 0 Z " fill="#3B3B3B" transform="translate(71,83)"/>
</svg>
